<?xml version="1.0" encoding="utf-8"?>
<!-- Generator: Adobe Illustrator 17.0.0, SVG Export Plug-In . SVG Version: 6.00 Build 0)  -->
<!DOCTYPE svg PUBLIC "-//W3C//DTD SVG 1.0//EN" "http://www.w3.org/TR/2001/REC-SVG-20010904/DTD/svg10.dtd">
<svg version="1.0" id="Ebene_1" xmlns="http://www.w3.org/2000/svg" xmlns:xlink="http://www.w3.org/1999/xlink" x="0px" y="0px"
	 width="214.704px" height="45.255px" viewBox="0 0 214.704 45.255" enable-background="new 0 0 214.704 45.255"
	 xml:space="preserve">
<g>
	<path d="M21.106,0c0,14.828,0,29.656,0,44.535c-2.169,0-4.29,0-6.487,0c0-1.122,0-2.213,0-3.471
		c-0.254,0.25-0.395,0.369-0.512,0.509c-0.776,0.924-1.562,1.839-2.599,2.487c-1.122,0.701-2.324,1.152-3.675,1.102
		c-0.368-0.014-0.738-0.005-1.107-0.002c-2.417,0.023-4.157-1.119-5.366-3.145c-0.546-0.914-0.857-1.92-1.055-2.965
		C0.232,38.672,0.103,38.304,0,37.932c0-6.642,0-13.283,0-19.925c0.153-0.582,0.309-1.164,0.458-1.747
		c0.476-1.867,1.309-3.541,3.033-4.522c2.569-1.463,5.17-1.297,7.681,0.203c0.713,0.426,1.352,0.976,2.021,1.476
		c0.32,0.239,0.629,0.493,1.067,0.839c0-0.456,0-0.722,0-0.987c0-4.13-0.001-8.26,0.003-12.389c0-0.293,0.035-0.585,0.054-0.878
		C16.58,0,18.843,0,21.106,0z M14.235,18.225c-1.106-0.968-2.369-1.616-3.551-1.787c-1.135-0.165-2.603,0.197-3.221,1.759
		c-0.32,0.809-0.499,1.645-0.521,2.507c-0.03,1.179-0.025,2.36-0.024,3.54c0.003,3.688-0.004,7.376,0.028,11.064
		c0.009,1.01,0.214,2.001,0.73,2.897c0.447,0.776,1.117,1.272,2.006,1.319c0.625,0.033,1.282-0.029,1.885-0.194
		c1.003-0.273,1.846-0.881,2.668-1.521C14.235,31.277,14.235,24.764,14.235,18.225z"/>
	<path d="M198.809,0c-0.007,1.598-0.019,3.196-0.019,4.795c-0.002,5.853-0.001,11.706-0.001,17.559c0,0.235,0,0.471,0,0.706
		c0.053,0.018,0.107,0.036,0.16,0.055c2.528-3.901,5.057-7.803,7.59-11.711c2.421,0,4.827,0,7.353,0
		c-2.418,3.52-4.79,6.971-7.198,10.476c2.664,7.541,5.331,15.089,8.01,22.675c-2.306,0-4.587,0-6.933,0
		c-1.843-5.464-3.688-10.932-5.579-16.537c-0.228,0.287-0.37,0.443-0.486,0.617c-0.85,1.263-1.684,2.537-2.55,3.789
		c-0.265,0.383-0.378,0.764-0.376,1.229c0.015,3.369,0.008,6.738,0.008,10.108c0,0.242,0,0.484,0,0.776c-2.303,0-4.551,0-6.897,0
		c0-0.263,0-0.524,0-0.785c0-14.19,0-28.38-0.001-42.57c0-0.393-0.013-0.786-0.019-1.179C194.184,0,196.497,0,198.809,0z"/>
	<path d="M89.294,0c0,7.66,0,15.32,0,22.98c0.058,0.021,0.115,0.042,0.173,0.063c1.303-1.911,2.524-3.877,3.788-5.813
		c1.261-1.931,2.509-3.872,3.773-5.824c2.408,0,4.814,0,7.352,0c-2.424,3.529-4.802,6.992-7.194,10.474
		c2.67,7.56,5.329,15.089,8.007,22.67c-2.332,0-4.609,0-6.929,0c-1.849-5.476-3.694-10.941-5.579-16.523
		c-0.222,0.274-0.354,0.414-0.46,0.571c-0.863,1.284-1.714,2.576-2.586,3.854c-0.246,0.36-0.356,0.721-0.354,1.162
		c0.015,3.369,0.009,6.737,0.009,10.106c0,0.264,0,0.528,0,0.829c-2.322,0-4.572,0-6.916,0c0-0.331,0-0.643,0-0.954
		c0-13.868,0.001-27.736,0-41.604c0-0.664-0.013-1.327-0.019-1.991C84.67,0,86.982,0,89.294,0z"/>
	<path d="M121.083,11.491c1.693,0,3.335,0,5.091,0c0.613,3.417,1.229,6.86,1.847,10.303c0.615,3.425,1.231,6.85,1.935,10.28
		c1.372-6.864,2.579-13.747,3.855-20.65c2.191,0,4.344,0,6.617,0c-2.547,11.056-5.083,22.061-7.629,33.112c-1.82,0-3.63,0-5.544,0
		c-1.238-6.885-2.482-13.801-3.725-20.717c-0.044-0.008-0.088-0.016-0.132-0.024c-0.062,0.133-0.151,0.26-0.182,0.4
		c-0.536,2.443-1.07,4.887-1.594,7.333c-0.905,4.22-1.802,8.442-2.705,12.662c-0.025,0.117-0.083,0.226-0.134,0.361
		c-1.822,0-3.633,0-5.495,0c-2.136-11.048-4.267-22.07-6.405-33.133c2.191,0,4.348,0,6.62,0c0.999,6.83,2,13.674,3.001,20.519
		c0.073,0.002,0.147,0.004,0.22,0.006C118.208,25.141,119.603,18.319,121.083,11.491z"/>
	<path d="M165.266,29.246c-4.872,0-9.68,0-14.484,0c-0.108,2.568-0.32,5.074,0.237,7.539c0.291,1.288,1.011,2.321,2.393,2.632
		c2.575,0.578,4.309-0.481,4.794-3.09c0.173-0.933,0.176-1.897,0.261-2.901c2.215,0,4.464,0,6.768,0
		c0.016,0.17,0.058,0.358,0.047,0.542c-0.107,1.894-0.363,3.761-1.087,5.533c-1.092,2.67-3.003,4.452-5.799,5.211
		c-2.663,0.723-5.345,0.719-7.984-0.09c-2.951-0.903-4.784-2.965-5.749-5.846c-0.583-1.74-0.806-3.538-0.811-5.364
		c-0.01-3.615-0.013-7.23,0.001-10.844c0.008-2.101,0.289-4.161,1.102-6.12c1.14-2.747,3.134-4.514,6.033-5.244
		c2.484-0.626,4.974-0.612,7.428,0.07c3.204,0.89,5.159,3.083,6.128,6.209c0.55,1.774,0.739,3.603,0.757,5.45
		c0.018,1.942,0.005,3.885,0.003,5.828C165.302,28.881,165.285,29.001,165.266,29.246z M158.353,23.579
		c0-1.062,0.048-2.069-0.018-3.069c-0.04-0.602-0.199-1.214-0.405-1.785c-0.592-1.641-1.746-2.324-3.392-2.308
		c-1.718,0.016-2.783,0.703-3.372,2.339c-0.558,1.55-0.513,3.17-0.444,4.823C153.275,23.579,155.774,23.579,158.353,23.579z"/>
	<path d="M48.568,29.224c-4.843,0-9.631,0-14.474,0c-0.034,0.228-0.087,0.412-0.086,0.595c0.019,1.842,0.011,3.686,0.091,5.526
		c0.029,0.674,0.204,1.363,0.432,2.002c0.512,1.436,1.646,2.194,3.15,2.209c1.836,0.019,2.88-0.607,3.519-2.107
		c0.421-0.99,0.498-2.042,0.554-3.097c0.015-0.291,0.002-0.583,0.002-0.925c2.276,0,4.5,0,6.803,0c0,0.38,0.019,0.763-0.003,1.144
		c-0.101,1.699-0.397,3.358-1.046,4.943c-1.142,2.786-3.19,4.516-6.083,5.308c-1.865,0.51-3.789,0.531-5.635,0.266
		c-4.133-0.592-6.974-2.588-8.164-7.599c-0.341-1.437-0.476-2.903-0.471-4.383c0.014-3.762-0.027-7.524,0.036-11.285
		c0.032-1.92,0.391-3.805,1.171-5.584c1.138-2.593,3.067-4.28,5.809-5c2.547-0.669,5.109-0.663,7.639,0.061
		c3.082,0.881,4.997,2.979,5.991,5.975c0.61,1.838,0.788,3.74,0.806,5.66c0.019,1.967,0.004,3.934,0.002,5.901
		C48.611,28.931,48.59,29.028,48.568,29.224z M41.751,23.592c0-0.784,0.038-1.494-0.009-2.198c-0.063-0.951-0.15-1.903-0.525-2.802
		c-0.355-0.849-0.884-1.544-1.759-1.879c-1.971-0.754-4.417-0.208-5.1,2.435c-0.329,1.275-0.35,2.568-0.342,3.868
		c0.001,0.187,0.041,0.374,0.065,0.577C36.632,23.592,39.133,23.592,41.751,23.592z"/>
	<path d="M61.607,14.611c0.637-0.528,1.278-1.052,1.911-1.584c1.801-1.513,3.865-2.272,6.229-2.257
		c2.884,0.018,4.869,1.481,5.59,4.272c0.219,0.847,0.341,1.743,0.343,2.618c0.025,8.706,0.015,17.411,0.015,26.117
		c0,0.24,0,0.481,0,0.765c-2.314,0-4.561,0-6.897,0c0-0.309,0-0.596,0-0.883c0-7.993,0-15.985,0-23.978
		c0-0.295-0.001-0.59-0.001-0.885c0.003-1.748-1.201-2.553-2.834-2.349c-0.71,0.089-1.395,0.433-2.07,0.713
		c-0.358,0.148-0.676,0.398-1.001,0.618c-0.345,0.233-0.676,0.486-1.055,0.76c0,8.641,0,17.291,0,25.994c-2.306,0-4.555,0-6.859,0
		c0-11.014,0-22.039,0-33.106c2.133,0,4.258,0,6.454,0c0,1.054,0,2.076,0,3.098C61.491,14.553,61.549,14.582,61.607,14.611z"/>
	<path d="M178.498,44.547c-2.313,0-4.539,0-6.813,0c0-11.044,0-22.067,0-33.126c2.167,0,4.295,0,6.522,0c0,1.268,0,2.502,0,3.737
		c0.048,0.029,0.095,0.058,0.143,0.088c2.161-3.355,5.241-4.753,9.191-4.432c0,2.35,0,4.674,0,7.087
		c-0.652-0.139-1.302-0.305-1.962-0.412c-1.091-0.177-2.187-0.336-3.295-0.125c-2.407,0.459-3.711,1.986-3.783,4.445
		c-0.015,0.516-0.003,1.033-0.003,1.549c0,6.763,0,13.526,0,20.289C178.498,43.917,178.498,44.186,178.498,44.547z"/>
</g>
</svg>
