<?xml version="1.0" encoding="utf-8"?>
<!-- Generator: Adobe Illustrator 17.0.0, SVG Export Plug-In . SVG Version: 6.00 Build 0)  -->
<!DOCTYPE svg PUBLIC "-//W3C//DTD SVG 1.0//EN" "http://www.w3.org/TR/2001/REC-SVG-20010904/DTD/svg10.dtd">
<svg version="1.0" id="Ebene_1" xmlns="http://www.w3.org/2000/svg" xmlns:xlink="http://www.w3.org/1999/xlink" x="0px" y="0px"
	 width="182.707px" height="44.75px" viewBox="0 0 182.707 44.75" enable-background="new 0 0 182.707 44.75" xml:space="preserve">
<g>
	<g>
		<path d="M15.101,41.402C6.893,41.402,0.158,38.14,0,29.037h8.261c0.105,4.05,2.473,6.471,6.998,6.471
			c3.367,0,7.154-1.685,7.154-5.472c0-2.104-1.473-3.211-3.263-3.948c-2.051-0.841-4.419-1.314-6.576-1.999
			c-5.63-1.736-11.68-3.841-11.68-10.839C0.895,4.78,8.788,1.94,15.996,1.94c7.418,0,13.784,2.577,13.838,10.997h-8.261
			c-0.315-3.472-2.314-5.472-6.208-5.472c-3.053,0-6.103,1.631-6.103,4.999c0,1.105,0.42,1.946,1.263,2.629
			c0.841,0.685,3.155,1.526,5.628,2.368c2.475,0.79,5.106,1.58,6.474,2.106c4.945,1.892,8.313,3.999,8.313,9.839
			C30.938,38.086,22.572,41.402,15.101,41.402z"/>
		<path d="M62.977,40.717c-0.524-1.526-0.788-3.209-1-4.84c-0.21-1.685-0.315-3.316-0.473-4.947c-0.473-4.682-1.368-6.26-6.313-6.26
			h-6.157v16.047h-8.208V2.676H55.4c3.158,0,6.157,0.054,9.102,1.263c3.736,1.578,6.103,4.209,6.103,8.366
			c0,5.418-3.526,8.208-8.576,9.207v0.054c4.314,0.261,6.262,1.788,7.157,5.786c0.261,1.105,0.368,2.421,0.578,3.789
			c0.422,3.209,0.473,6.63,1.841,9.576H62.977z M54.296,8.465h-5.262v10.627h4.684c3.945,0,8.839-0.315,8.839-5.418
			C62.557,9.043,57.978,8.465,54.296,8.465z"/>
		<path d="M96.595,8.726v31.991h-8.261V8.726H76.442v-6.05h32.045v6.05H96.595z"/>
	</g>
	<g>
		<path d="M130.158,9.383c-1.702,0-3.102-0.706-3.228-2.573l1.222-0.013c0.064,1.16,0.972,1.666,2.044,1.666
			c1.008,0,2.169-0.454,2.169-1.614c0-0.58-0.328-0.959-0.807-1.222c-0.529-0.291-1.199-0.467-1.779-0.644
			c-1.297-0.402-2.597-0.895-2.597-2.47c0-1.805,1.627-2.511,3.203-2.511c1.501,0,2.976,0.554,3.001,2.308h-1.199
			c-0.101-1.06-0.856-1.411-1.815-1.411c-0.946,0-1.991,0.428-1.991,1.511c0,0.518,0.328,0.858,0.807,1.124
			c0.516,0.276,1.222,0.467,1.777,0.655c1.299,0.428,2.61,0.882,2.61,2.522C133.574,8.625,131.823,9.383,130.158,9.383z"/>
		<path d="M137.734,9.319c-1.021,0-1.55-0.415-1.55-1.475V3.659h-1.25V2.888h1.25V1.653l1.109-0.467v1.702h1.426v0.771h-1.426v3.744
			c0,0.719,0.062,1.06,0.869,1.06c0.203,0,0.379-0.051,0.593-0.064v0.846C138.402,9.295,138.074,9.319,137.734,9.319z"/>
		<path d="M144.978,9.257l-0.049-1.008c-0.531,0.73-1.137,1.083-2.057,1.083c-1.676,0-2.282-0.908-2.282-2.483v-3.96h1.111V6.42
			c0,1.109,0.126,2.068,1.475,2.068c1.336,0,1.753-1.073,1.753-2.233V2.888h1.109v3.089c0,1.085-0.013,2.184,0.026,3.28H144.978z"/>
		<path d="M152.997,9.257l-0.064-0.972c-0.542,0.745-1.096,1.085-2.042,1.085c-1.929,0-2.787-1.614-2.787-3.342
			c0-1.666,0.871-3.267,2.749-3.267c0.959,0,1.591,0.328,2.081,1.135V0.139h1.111v7.264c0,0.606-0.013,1.235,0.036,1.854H152.997z
			 M151.03,3.545c-1.374,0-1.766,1.362-1.766,2.509c0,1.235,0.467,2.509,1.905,2.509c1.374,0,1.777-1.336,1.777-2.483
			C152.946,4.868,152.443,3.545,151.03,3.545z"/>
		<path d="M157.232,6.281v0.126c0,1.173,0.629,2.244,1.916,2.244c0.908,0,1.501-0.554,1.64-1.449h1.06
			c-0.253,1.501-1.338,2.194-2.787,2.194c-1.98,0-2.939-1.325-2.939-3.215c0-1.905,0.959-3.406,3.027-3.406
			c2.13,0,2.736,1.653,2.736,3.507H157.232z M159.109,3.532c-1.173,0-1.753,0.957-1.854,2.017h3.532
			C160.8,4.502,160.269,3.532,159.109,3.532z"/>
		<path d="M168.302,9.257v-3.53c0-1.111-0.126-2.068-1.477-2.068c-1.374,0-1.751,1.248-1.751,2.421v3.177h-1.111V4.528
			c0-0.542-0.026-1.274-0.036-1.64h1.096l0.039,1.021c0.516-0.73,1.16-1.096,2.081-1.096c1.663,0,2.269,0.921,2.269,2.483v3.96
			H168.302z"/>
		<path d="M173.897,9.319c-1.021,0-1.55-0.415-1.55-1.475V3.659h-1.25V2.888h1.25V1.653l1.109-0.467v1.702h1.426v0.771h-1.426v3.744
			c0,0.719,0.062,1.06,0.869,1.06c0.203,0,0.379-0.051,0.593-0.064v0.846C174.565,9.295,174.238,9.319,173.897,9.319z"/>
	</g>
	<g>
		<path d="M132.705,26.933c-0.289-0.719-0.302-1.488-0.366-2.246c-0.126-1.336-0.201-1.978-1.728-1.978h-1.942v4.224h-1.186v-9.117
			h3.254c1.488,0,3.063,0.454,3.063,2.246c0,1.21-0.717,1.854-1.815,2.156c1.16,0.253,1.451,0.908,1.552,1.892
			c0.062,0.604,0.075,1.248,0.201,1.942c0.062,0.34,0.139,0.642,0.302,0.882H132.705z M130.472,18.723h-1.803v3.089h1.475
			c1.147,0,2.447-0.176,2.447-1.614C132.592,18.924,131.519,18.723,130.472,18.723z"/>
		<path d="M136.929,23.957v0.126c0,1.173,0.629,2.244,1.916,2.244c0.908,0,1.501-0.554,1.64-1.449h1.06
			c-0.253,1.501-1.338,2.194-2.787,2.194c-1.98,0-2.939-1.325-2.939-3.215c0-1.905,0.959-3.406,3.027-3.406
			c2.13,0,2.736,1.653,2.736,3.507H136.929z M138.806,21.208c-1.173,0-1.753,0.957-1.854,2.017h3.532
			C140.497,22.178,139.967,21.208,138.806,21.208z"/>
		<path d="M145.691,27.072c-1.351,0-2.485-0.531-2.485-2.068h1.109c0.051,0.882,0.557,1.297,1.426,1.297
			c0.668,0,1.439-0.328,1.439-1.083c0-0.417-0.24-0.668-0.593-0.846c-0.392-0.188-0.871-0.289-1.299-0.39
			c-0.946-0.24-1.916-0.619-1.916-1.753c0-1.325,1.297-1.815,2.421-1.815c1.274,0,2.282,0.529,2.331,1.929h-1.096
			c-0.026-0.745-0.518-1.173-1.261-1.173c-0.58,0-1.312,0.265-1.312,0.946c0,0.39,0.24,0.617,0.593,0.794
			c0.405,0.201,0.882,0.289,1.312,0.402c0.957,0.253,1.916,0.619,1.916,1.779C148.275,26.541,146.939,27.072,145.691,27.072z"/>
		<path d="M151.021,23.957v0.126c0,1.173,0.629,2.244,1.916,2.244c0.908,0,1.501-0.554,1.64-1.449h1.06
			c-0.253,1.501-1.338,2.194-2.787,2.194c-1.98,0-2.939-1.325-2.939-3.215c0-1.905,0.959-3.406,3.027-3.406
			c2.13,0,2.736,1.653,2.736,3.507H151.021z M152.899,21.208c-1.173,0-1.753,0.957-1.854,2.017h3.532
			C154.59,22.178,154.059,21.208,152.899,21.208z"/>
		<path d="M161.672,26.933c-0.049-0.302-0.075-0.606-0.113-0.895c-0.529,0.769-1.235,1.034-2.156,1.034
			c-1.186,0-2.233-0.593-2.233-1.892c0-1.903,2.094-2.13,3.646-2.13c0.227,0,0.441,0.013,0.629,0.013c0,0-0.013-0.24-0.013-0.366
			c0-0.985-0.34-1.539-1.387-1.539c-0.781,0-1.248,0.291-1.323,1.122h-1.085c0.064-1.387,1.186-1.841,2.385-1.841
			c1.625,0,2.421,0.619,2.421,2.284v2.344c0,0.833,0.113,1.578,0.201,1.867H161.672z M160.877,23.717
			c-0.983,0-2.597,0.113-2.597,1.413c0,0.781,0.668,1.197,1.4,1.197c1.601,0,1.764-1.287,1.764-2.571
			C161.192,23.743,161.092,23.717,160.877,23.717z"/>
		<path d="M167.824,21.549c-1.312,0-1.74,0.743-1.74,1.955v3.429h-1.111v-4.502c0-0.619-0.026-1.248-0.036-1.867h1.083l0.051,1.021
			c0.454-0.743,1.07-1.058,1.942-1.058c0.113,0,0.227,0.011,0.353,0.024v1.047C168.175,21.572,168,21.549,167.824,21.549z"/>
		<path d="M172.658,27.072c-2.004,0-3.089-1.325-3.089-3.254c0-1.955,1.085-3.429,3.153-3.429c1.436,0,2.47,0.73,2.597,2.231h-1.083
			c-0.064-0.908-0.606-1.449-1.514-1.449c-1.501,0-1.98,1.312-1.98,2.597c0,1.212,0.518,2.547,1.929,2.547
			c0.933,0,1.526-0.604,1.588-1.524h1.047l0.039,0.011C175.231,26.327,174.109,27.072,172.658,27.072z"/>
		<path d="M181.598,26.933v-3.53c0-1.111-0.126-2.081-1.477-2.081c-1.284,0-1.751,1.083-1.751,2.244v3.367h-1.111v-9.117h1.111
			v3.746c0.503-0.719,1.16-1.085,2.055-1.085c1.676,0,2.282,0.921,2.282,2.496v3.96H181.598z"/>
	</g>
	<g>
		<path d="M130.41,36.427v8.184h-1.173v-8.184h-2.901v-0.933h6.987v0.933H130.41z"/>
		<path d="M134.379,41.635v0.126c0,1.173,0.629,2.244,1.916,2.244c0.908,0,1.501-0.554,1.64-1.449h1.06
			c-0.253,1.501-1.338,2.194-2.787,2.194c-1.98,0-2.939-1.325-2.939-3.215c0-1.905,0.959-3.406,3.027-3.406
			c2.13,0,2.736,1.653,2.736,3.507H134.379z M136.257,38.887c-1.173,0-1.753,0.957-1.854,2.017h3.532
			C137.948,39.857,137.417,38.887,136.257,38.887z"/>
		<path d="M145.029,44.611c-0.049-0.302-0.075-0.606-0.113-0.895c-0.529,0.769-1.235,1.034-2.156,1.034
			c-1.186,0-2.233-0.593-2.233-1.892c0-1.903,2.094-2.13,3.646-2.13c0.227,0,0.441,0.013,0.629,0.013c0,0-0.013-0.24-0.013-0.366
			c0-0.985-0.34-1.539-1.387-1.539c-0.781,0-1.248,0.291-1.323,1.122h-1.085c0.064-1.387,1.186-1.841,2.385-1.841
			c1.625,0,2.421,0.619,2.421,2.284v2.344c0,0.833,0.113,1.578,0.201,1.867H145.029z M144.235,41.396
			c-0.983,0-2.597,0.113-2.597,1.413c0,0.781,0.668,1.197,1.4,1.197c1.601,0,1.764-1.287,1.764-2.571
			C144.55,41.421,144.449,41.396,144.235,41.396z"/>
		<path d="M156.78,44.611v-3.757c0-1.034-0.278-1.841-1.462-1.841c-1.261,0-1.653,0.921-1.653,2.068v3.53h-1.109v-3.695
			c0-1.034-0.227-1.903-1.451-1.903c-1.173,0-1.663,1.008-1.663,2.068v3.53h-1.111c0.013-2.473,0-4.187,0-4.187
			c0-0.717-0.026-1.449-0.036-2.181h1.096l0.039,1.06c0.454-0.756,1.135-1.135,2.017-1.135c0.998,0,1.653,0.379,2.032,1.312
			c0.454-0.897,1.197-1.312,2.205-1.312c1.779,0,2.207,1.16,2.207,2.71v3.733H156.78z"/>
		<path d="M162.472,44.75c-1.351,0-2.485-0.531-2.485-2.068h1.109c0.051,0.882,0.557,1.297,1.426,1.297
			c0.668,0,1.439-0.328,1.439-1.083c0-0.417-0.24-0.668-0.593-0.846c-0.392-0.188-0.871-0.289-1.299-0.39
			c-0.946-0.24-1.916-0.619-1.916-1.753c0-1.325,1.297-1.815,2.421-1.815c1.274,0,2.282,0.529,2.331,1.929h-1.096
			c-0.026-0.745-0.518-1.173-1.261-1.173c-0.58,0-1.312,0.265-1.312,0.946c0,0.39,0.24,0.617,0.593,0.794
			c0.405,0.201,0.882,0.289,1.312,0.402c0.957,0.253,1.916,0.619,1.916,1.779C165.056,44.219,163.72,44.75,162.472,44.75z"/>
	</g>
</g>
</svg>
