<?xml version="1.0" encoding="utf-8"?>
<!-- Generator: Adobe Illustrator 17.0.0, SVG Export Plug-In . SVG Version: 6.00 Build 0)  -->
<!DOCTYPE svg PUBLIC "-//W3C//DTD SVG 1.0//EN" "http://www.w3.org/TR/2001/REC-SVG-20010904/DTD/svg10.dtd">
<svg version="1.0" id="Ebene_1" xmlns="http://www.w3.org/2000/svg" xmlns:xlink="http://www.w3.org/1999/xlink" x="0px" y="0px"
	 width="135.693px" height="19.776px" viewBox="0 0 135.693 19.776" enable-background="new 0 0 135.693 19.776"
	 xml:space="preserve">
<g>
	<path fill="#FFFFFF" d="M6.62,8.471C6.364,8.229,6.064,8.025,5.721,7.858C5.376,7.693,5.012,7.61,4.63,7.61
		c-0.293,0-0.564,0.057-0.813,0.172C3.568,7.897,3.444,8.095,3.444,8.375c0,0.268,0.137,0.459,0.411,0.574
		C4.13,9.064,4.572,9.192,5.184,9.332c0.357,0.076,0.718,0.185,1.081,0.325c0.363,0.14,0.692,0.325,0.985,0.554
		c0.293,0.23,0.529,0.511,0.708,0.842c0.179,0.332,0.268,0.726,0.268,1.186c0,0.599-0.122,1.107-0.364,1.521
		c-0.242,0.414-0.558,0.75-0.947,1.004c-0.389,0.255-0.826,0.44-1.311,0.555c-0.485,0.114-0.969,0.172-1.454,0.172
		c-0.778,0-1.54-0.125-2.286-0.374C1.119,14.869,0.497,14.504,0,14.019l1.76-1.855c0.281,0.305,0.625,0.56,1.033,0.766
		c0.409,0.202,0.843,0.305,1.302,0.305c0.254,0,0.507-0.059,0.755-0.18c0.249-0.122,0.374-0.336,0.374-0.641
		c0-0.293-0.153-0.511-0.459-0.651c-0.306-0.14-0.784-0.287-1.435-0.44c-0.332-0.077-0.664-0.179-0.995-0.306
		c-0.333-0.127-0.629-0.299-0.89-0.516c-0.261-0.217-0.476-0.485-0.64-0.803C0.637,9.376,0.555,8.994,0.555,8.547
		c0-0.574,0.121-1.062,0.363-1.464c0.242-0.401,0.555-0.73,0.937-0.985c0.383-0.255,0.806-0.443,1.272-0.564
		c0.465-0.121,0.927-0.181,1.386-0.181c0.715,0,1.413,0.112,2.095,0.334c0.683,0.224,1.259,0.558,1.731,1.004L6.62,8.471z"/>
	<path fill="#FFFFFF" d="M9.125,6.959c0.561-0.535,1.215-0.937,1.961-1.205c0.746-0.268,1.508-0.401,2.286-0.401
		c0.803,0,1.482,0.099,2.037,0.296c0.555,0.198,1.004,0.504,1.349,0.919c0.344,0.414,0.596,0.937,0.755,1.568
		c0.16,0.632,0.24,1.38,0.24,2.247v4.803h-2.87v-1.015h-0.057c-0.242,0.396-0.609,0.702-1.1,0.919
		c-0.491,0.218-1.023,0.325-1.597,0.325c-0.382,0-0.778-0.051-1.186-0.154c-0.409-0.101-0.781-0.268-1.12-0.497
		c-0.338-0.229-0.616-0.536-0.832-0.917c-0.217-0.383-0.325-0.856-0.325-1.417c0-0.688,0.189-1.243,0.564-1.664
		c0.376-0.421,0.861-0.747,1.454-0.976c0.593-0.23,1.253-0.383,1.979-0.459c0.727-0.077,1.436-0.115,2.124-0.115V9.064
		c0-0.472-0.166-0.82-0.497-1.043c-0.331-0.223-0.739-0.335-1.224-0.335c-0.446,0-0.876,0.096-1.291,0.287
		c-0.415,0.192-0.769,0.421-1.062,0.689L9.125,6.959z M14.883,11.034h-0.402c-0.344,0-0.692,0.016-1.042,0.047
		c-0.351,0.033-0.663,0.093-0.938,0.182c-0.274,0.089-0.5,0.22-0.679,0.391c-0.179,0.173-0.268,0.399-0.268,0.679
		c0,0.18,0.041,0.333,0.125,0.461c0.082,0.128,0.188,0.229,0.315,0.305c0.128,0.078,0.274,0.131,0.44,0.162
		c0.166,0.032,0.325,0.05,0.479,0.05c0.638,0,1.126-0.176,1.463-0.526c0.338-0.352,0.507-0.827,0.507-1.426V11.034z"/>
	<path fill="#FFFFFF" d="M30.819,15.186V9.982c0-0.268-0.019-0.526-0.058-0.775c-0.038-0.248-0.108-0.462-0.21-0.64
		c-0.102-0.179-0.239-0.322-0.411-0.431c-0.172-0.108-0.399-0.163-0.68-0.163c-0.268,0-0.5,0.057-0.698,0.172
		c-0.198,0.114-0.363,0.268-0.497,0.459c-0.134,0.192-0.233,0.411-0.297,0.66c-0.064,0.248-0.095,0.507-0.095,0.774v5.147h-3.137
		V9.752c0-0.548-0.108-0.982-0.325-1.301c-0.217-0.318-0.561-0.478-1.033-0.478c-0.498,0-0.884,0.198-1.158,0.593
		c-0.274,0.396-0.411,0.879-0.411,1.453v5.166h-3.157V5.658h3.041v1.32h0.039c0.114-0.204,0.258-0.401,0.43-0.593
		c0.172-0.191,0.379-0.36,0.621-0.507c0.242-0.147,0.514-0.265,0.813-0.354c0.3-0.089,0.628-0.134,0.985-0.134
		c0.689,0,1.273,0.141,1.751,0.421c0.479,0.28,0.851,0.682,1.119,1.205c0.318-0.497,0.727-0.893,1.225-1.186
		c0.497-0.293,1.103-0.44,1.817-0.44c0.651,0,1.196,0.118,1.636,0.354c0.44,0.236,0.794,0.542,1.062,0.918
		c0.268,0.377,0.462,0.798,0.583,1.262c0.122,0.466,0.182,0.922,0.182,1.369v5.893H30.819z"/>
	<path fill="#FFFFFF" d="M47.06,15.186V9.982c0-0.268-0.019-0.526-0.058-0.775c-0.038-0.248-0.108-0.462-0.21-0.64
		c-0.102-0.179-0.239-0.322-0.411-0.431c-0.172-0.108-0.399-0.163-0.68-0.163c-0.268,0-0.501,0.057-0.698,0.172
		c-0.198,0.114-0.363,0.268-0.497,0.459c-0.134,0.192-0.233,0.411-0.297,0.66c-0.064,0.248-0.095,0.507-0.095,0.774v5.147h-3.137
		V9.752c0-0.548-0.108-0.982-0.325-1.301c-0.217-0.318-0.561-0.478-1.033-0.478c-0.497,0-0.883,0.198-1.157,0.593
		c-0.274,0.396-0.411,0.879-0.411,1.453v5.166h-3.157V5.658h3.041v1.32h0.039c0.114-0.204,0.258-0.401,0.43-0.593
		c0.172-0.191,0.379-0.36,0.621-0.507c0.242-0.147,0.514-0.265,0.813-0.354c0.3-0.089,0.628-0.134,0.985-0.134
		c0.689,0,1.273,0.141,1.751,0.421c0.479,0.28,0.852,0.682,1.119,1.205c0.318-0.497,0.727-0.893,1.224-1.186
		c0.498-0.293,1.103-0.44,1.817-0.44c0.651,0,1.196,0.118,1.636,0.354c0.44,0.236,0.794,0.542,1.062,0.918
		c0.268,0.377,0.462,0.798,0.583,1.262c0.121,0.466,0.182,0.922,0.182,1.369v5.893H47.06z"/>
	<path fill="#FFFFFF" d="M56.511,16.62c-0.192,0.497-0.406,0.94-0.642,1.329c-0.236,0.389-0.516,0.721-0.841,0.995
		c-0.325,0.274-0.708,0.481-1.147,0.623c-0.441,0.14-0.961,0.209-1.559,0.209c-0.294,0-0.597-0.019-0.909-0.056
		c-0.312-0.039-0.583-0.09-0.813-0.153l0.344-2.64c0.153,0.05,0.322,0.092,0.507,0.125c0.185,0.031,0.354,0.047,0.507,0.047
		c0.484,0,0.835-0.112,1.052-0.333c0.217-0.224,0.402-0.54,0.555-0.948l0.306-0.784l-3.979-9.374h3.482l2.124,6.122h0.058
		l1.894-6.122h3.329L56.511,16.62z"/>
	<path fill="#FFFFFF" d="M67.642,8.074c-0.213-0.348-0.515-0.633-0.904-0.854C66.349,7,65.915,6.89,65.433,6.89
		c-0.215,0-0.43,0.023-0.643,0.07c-0.213,0.047-0.406,0.121-0.573,0.221c-0.167,0.101-0.3,0.228-0.401,0.381
		c-0.101,0.154-0.151,0.345-0.151,0.573c0,0.402,0.18,0.7,0.543,0.894c0.361,0.194,0.904,0.371,1.627,0.532
		c0.454,0.108,0.876,0.234,1.264,0.381c0.389,0.147,0.727,0.332,1.015,0.553c0.288,0.22,0.514,0.485,0.673,0.793
		c0.162,0.308,0.243,0.668,0.243,1.084c0,0.562-0.109,1.039-0.322,1.426c-0.215,0.389-0.5,0.707-0.855,0.954
		c-0.355,0.249-0.76,0.426-1.214,0.532c-0.455,0.108-0.925,0.161-1.406,0.161c-0.724,0-1.431-0.14-2.119-0.422
		c-0.691-0.28-1.262-0.71-1.719-1.286l1.347-1.145c0.254,0.375,0.606,0.69,1.054,0.945c0.448,0.254,0.941,0.38,1.476,0.38
		c0.243,0,0.473-0.022,0.695-0.069c0.221-0.047,0.42-0.124,0.602-0.232c0.18-0.107,0.325-0.248,0.431-0.422
		c0.107-0.174,0.162-0.395,0.162-0.663c0-0.442-0.212-0.769-0.634-0.984c-0.422-0.214-1.041-0.415-1.857-0.602
		c-0.322-0.08-0.648-0.177-0.975-0.291c-0.328-0.114-0.626-0.271-0.894-0.472c-0.268-0.201-0.486-0.452-0.654-0.753
		c-0.168-0.302-0.251-0.674-0.251-1.115c0-0.509,0.104-0.947,0.311-1.316c0.207-0.368,0.478-0.67,0.814-0.904
		c0.333-0.234,0.716-0.408,1.144-0.522c0.428-0.114,0.871-0.171,1.325-0.171c0.684,0,1.344,0.134,1.98,0.402
		c0.635,0.268,1.127,0.656,1.476,1.165L67.642,8.074z"/>
	<path fill="#FFFFFF" d="M76.681,8.074c-0.201-0.308-0.503-0.565-0.904-0.773c-0.402-0.208-0.83-0.311-1.284-0.311
		c-0.497,0-0.934,0.093-1.316,0.281c-0.383,0.188-0.707,0.439-0.975,0.754c-0.268,0.314-0.473,0.679-0.614,1.094
		c-0.14,0.415-0.21,0.851-0.21,1.306c0,0.455,0.07,0.891,0.21,1.305c0.14,0.416,0.346,0.782,0.614,1.096
		c0.268,0.315,0.595,0.565,0.984,0.754c0.389,0.187,0.831,0.28,1.326,0.28c0.482,0,0.92-0.093,1.316-0.28
		c0.394-0.189,0.719-0.442,0.973-0.765l1.267,1.144c-0.402,0.47-0.904,0.835-1.507,1.096c-0.604,0.262-1.286,0.391-2.049,0.391
		c-0.738,0-1.417-0.12-2.04-0.361c-0.623-0.242-1.161-0.579-1.616-1.014c-0.456-0.436-0.814-0.962-1.076-1.578
		c-0.26-0.615-0.391-1.305-0.391-2.068c0-0.75,0.128-1.432,0.381-2.049c0.254-0.616,0.609-1.145,1.063-1.586
		c0.456-0.442,0.996-0.784,1.618-1.024c0.623-0.241,1.297-0.362,2.019-0.362c0.67,0,1.336,0.134,1.999,0.402
		c0.663,0.268,1.188,0.656,1.575,1.165L76.681,8.074z"/>
	<path fill="#FFFFFF" d="M80.758,7.11c0.227-0.469,0.617-0.87,1.165-1.205c0.549-0.335,1.164-0.502,1.849-0.502
		c0.615,0,1.144,0.104,1.585,0.311c0.442,0.208,0.811,0.486,1.105,0.834c0.296,0.348,0.514,0.756,0.654,1.225
		c0.14,0.469,0.21,0.972,0.21,1.507v5.906h-1.888V9.91c0-0.389-0.029-0.759-0.09-1.108c-0.059-0.35-0.171-0.658-0.33-0.926
		c-0.162-0.269-0.38-0.484-0.654-0.645C84.09,7.07,83.732,6.99,83.289,6.99c-0.75,0-1.367,0.285-1.85,0.856
		c-0.481,0.57-0.722,1.332-0.722,2.285v5.055h-1.887V0h1.887v7.11H80.758z"/>
	<path fill="#FFFFFF" d="M95.04,15.186c-0.028-0.243-0.047-0.514-0.06-0.814c-0.014-0.3-0.021-0.552-0.021-0.753h-0.04
		c-0.24,0.509-0.646,0.942-1.214,1.297c-0.57,0.353-1.202,0.531-1.899,0.531c-0.617,0-1.149-0.101-1.597-0.3
		c-0.448-0.202-0.816-0.48-1.104-0.835c-0.288-0.355-0.503-0.766-0.643-1.236c-0.14-0.467-0.212-0.97-0.212-1.506V5.665h1.89v5.262
		c0,0.389,0.028,0.76,0.091,1.115c0.059,0.355,0.17,0.666,0.33,0.934c0.162,0.268,0.383,0.483,0.663,0.643
		c0.28,0.16,0.643,0.241,1.085,0.241c0.763,0,1.378-0.283,1.848-0.853c0.469-0.57,0.704-1.33,0.704-2.281V5.665h1.887v7.473
		c0,0.254,0.006,0.582,0.021,0.984c0.014,0.401,0.032,0.756,0.06,1.065H95.04z"/>
	<path fill="#FFFFFF" d="M104.883,8.074c-0.202-0.308-0.503-0.565-0.904-0.773c-0.401-0.208-0.83-0.311-1.284-0.311
		c-0.497,0-0.934,0.093-1.317,0.281c-0.381,0.188-0.707,0.439-0.975,0.754c-0.268,0.314-0.472,0.679-0.612,1.094
		c-0.142,0.415-0.21,0.851-0.21,1.306c0,0.455,0.069,0.891,0.21,1.305c0.14,0.416,0.344,0.782,0.612,1.096
		c0.268,0.315,0.596,0.565,0.984,0.754c0.389,0.187,0.831,0.28,1.326,0.28c0.482,0,0.922-0.093,1.317-0.28
		c0.394-0.189,0.719-0.442,0.973-0.765l1.266,1.144c-0.402,0.47-0.903,0.835-1.507,1.096c-0.602,0.262-1.286,0.391-2.049,0.391
		c-0.737,0-1.417-0.12-2.04-0.361c-0.623-0.242-1.161-0.579-1.616-1.014c-0.455-0.436-0.813-0.962-1.074-1.578
		c-0.261-0.615-0.392-1.305-0.392-2.068c0-0.75,0.128-1.432,0.383-2.049c0.252-0.616,0.607-1.145,1.063-1.586
		c0.456-0.442,0.995-0.784,1.618-1.024c0.623-0.241,1.295-0.362,2.018-0.362c0.67,0,1.336,0.134,1.999,0.402
		c0.663,0.268,1.19,0.656,1.577,1.165L104.883,8.074z"/>
	<path fill="#FFFFFF" d="M108.918,9.802h0.062l3.997-4.137h2.53l-4.459,4.319l4.841,5.203h-2.612l-4.297-4.942h-0.062v4.942h-1.887
		V0h1.887V9.802z"/>
	<path fill="#FFFFFF" d="M124.428,10.344c0,0.107,0,0.214,0,0.321c0,0.107-0.007,0.214-0.022,0.322h-7.572
		c0.013,0.399,0.104,0.774,0.271,1.127c0.169,0.352,0.392,0.658,0.673,0.917c0.283,0.26,0.607,0.462,0.975,0.608
		c0.369,0.147,0.76,0.22,1.176,0.22c0.643,0,1.198-0.14,1.667-0.422c0.468-0.282,0.837-0.623,1.105-1.024l1.326,1.065
		c-0.511,0.674-1.108,1.172-1.799,1.49c-0.688,0.319-1.456,0.478-2.299,0.478c-0.724,0-1.394-0.12-2.009-0.361
		c-0.617-0.242-1.145-0.579-1.587-1.014c-0.442-0.436-0.79-0.962-1.045-1.578c-0.254-0.615-0.381-1.298-0.381-2.048
		c0-0.736,0.125-1.416,0.371-2.038c0.249-0.623,0.594-1.155,1.036-1.597c0.444-0.441,0.969-0.786,1.571-1.035
		c0.604-0.248,1.255-0.371,1.954-0.371c0.697,0,1.329,0.114,1.902,0.342c0.57,0.227,1.053,0.556,1.448,0.984
		c0.395,0.429,0.701,0.947,0.916,1.557S124.428,9.581,124.428,10.344z M122.497,9.581c-0.013-0.375-0.076-0.726-0.19-1.054
		c-0.113-0.328-0.28-0.613-0.501-0.854c-0.221-0.241-0.495-0.432-0.825-0.572c-0.327-0.141-0.713-0.211-1.155-0.211
		c-0.402,0-0.778,0.07-1.133,0.211c-0.355,0.14-0.664,0.331-0.925,0.572c-0.262,0.241-0.475,0.525-0.642,0.854
		c-0.168,0.328-0.265,0.68-0.292,1.054H122.497z"/>
	<path fill="#FFFFFF" d="M125.441,6.729c-0.013-0.401-0.033-0.756-0.06-1.064h1.789c0.026,0.24,0.047,0.519,0.06,0.833
		c0.013,0.315,0.019,0.573,0.019,0.774h0.061c0.268-0.563,0.621-0.979,1.188-1.228c0.638-0.28,1.408-0.378,2.049-0.378
		c0.296,0,1.491,0,1.491,0l-0.424,1.546c0,0-0.922-0.011-1.544-0.017c-0.455-0.005-0.9,0.111-1.233,0.278
		c-0.336,0.167-0.613,0.392-0.834,0.673c-0.221,0.282-0.385,0.516-0.492,0.884c-0.107,0.368-0.16,0.753-0.16,1.155v5.002h-1.889
		V7.713C125.461,7.459,125.455,7.131,125.441,6.729z"/>
	<path fill="#FFFFFF" d="M135.693,7.211h-2.531v4.946c0,0.575,0.107,0.985,0.321,1.233c0.215,0.246,0.557,0.371,1.024,0.371
		c0.174,0,0.362-0.019,0.564-0.056c0.201-0.037,0.381-0.092,0.541-0.165l0.061,1.546c-0.229,0.079-0.478,0.145-0.754,0.192
		c-0.274,0.047-0.559,0.068-0.853,0.068c-0.898,0-1.584-0.246-2.06-0.741c-0.474-0.497-0.713-1.239-0.713-2.231V7.211h-0.747V5.665
		h0.747V2.932h1.869v2.732h2.531V7.211z"/>
</g>
</svg>
